<svg width="25" height="24" viewBox="0 0 25 24" fill="none" xmlns="http://www.w3.org/2000/svg">
<g clip-path="url(#clip0_1_42)">
<path d="M12.5 24C5.8736 24 0.5 18.6264 0.5 12C0.5 5.3736 5.8736 0 12.5 0C19.1264 0 24.5 5.3736 24.5 12C24.5 18.6264 19.1264 24 12.5 24Z" fill="#3B579D"/>
<path d="M15.62 24V14.7048H18.74L19.208 11.0832H15.62V8.7696C15.62 7.7208 15.9104 7.0056 17.4152 7.0056H19.3328V3.768C19.0016 3.7248 17.8616 3.6264 16.5368 3.6264C13.772 3.6264 11.8784 5.3136 11.8784 8.4144V11.0856H8.75122V14.7072H11.8784V24H15.62Z" fill="white"/>
</g>
<defs>
<clipPath id="clip0_1_42">
<rect width="24" height="24" fill="white" transform="translate(0.5)"/>
</clipPath>
</defs>
</svg>
